<svg xmlns="http://www.w3.org/2000/svg" xmlns:xlink="http://www.w3.org/1999/xlink" xmlns:lucid="lucid" width="1081.28" height="560"><g transform="translate(-78.725 120)" lucid:page-tab-id="0_0"><path d="M260-100h680v520H260z" stroke="#000" stroke-width="2" fill="none"/><use xlink:href="#a" transform="matrix(1,0,0,1,268,-92) translate(282.125 15.6)"/><path d="M890 190c0 27.6-44.77 50-100 50s-100-22.4-100-50 44.77-50 100-50 100 22.4 100 50z" stroke="#000" stroke-width="2" fill="#fff"/><use xlink:href="#b" transform="matrix(1,0,0,1,690,140) translate(17.104999999999997 55.025)"/><path d="M740 320c0 33.14-35.82 60-80 60s-80-26.86-80-60 35.82-60 80-60 80 26.86 80 60z" stroke="#000" stroke-width="2" fill="#fff"/><use xlink:href="#c" transform="matrix(1,0,0,1,580,260) translate(26.07999999999999 63.15)"/><path d="M540 360c0 22.1-35.82 40-80 40s-80-17.9-80-40 35.82-40 80-40 80 17.9 80 40z" stroke="#000" stroke-width="2" fill="#fff"/><use xlink:href="#d" transform="matrix(1,0,0,1,380,320) translate(31.57999999999999 44.4)"/><path d="M880 10c0 27.6-40.3 50-90 50s-90-22.4-90-50 40.3-50 90-50 90 22.4 90 50z" stroke="#000" stroke-width="2" fill="#fff"/><use xlink:href="#e" transform="matrix(1,0,0,1,700,-40) translate(29.07999999999999 55.025)"/><path d="M560-18c0 27.6-35.82 50-80 50s-80-22.4-80-50 35.82-50 80-50 80 22.4 80 50z" stroke="#000" stroke-width="2" fill="#fff"/><use xlink:href="#f" transform="matrix(1,0,0,1,400,-68) translate(21.054999999999992 55.025)"/><path d="M580 210c0 27.6-44.77 50-100 50s-100-22.4-100-50 44.77-50 100-50 100 22.4 100 50z" stroke="#000" stroke-width="2" fill="#fff"/><use xlink:href="#g" transform="matrix(1,0,0,1,380,160) translate(17.104999999999997 55.025)"/><path d="M154.75 14.75c0 8.15-6.6 14.75-14.75 14.75s-14.75-6.6-14.75-14.75S131.85 0 140 0s14.75 6.6 14.75 14.75z" stroke="#000" stroke-width="2" fill="#fff"/><path d="M100 0h80v118h-80z" fill="none"/><path d="M140 29.5v41.3l40 47.2m-40-47.2L100 118m0-73.75h80" stroke="#000" stroke-width="2" fill="none"/><use xlink:href="#h" transform="matrix(1,0,0,1,20,118) translate(82.625 14.6)"/><path d="M1114.75 94.75c0 8.15-6.6 14.75-14.75 14.75s-14.75-6.6-14.75-14.75S1091.85 80 1100 80s14.75 6.6 14.75 14.75z" stroke="#000" stroke-width="2" fill="#fff"/><path d="M1060 80h80v118h-80z" fill="none"/><path d="M1100 109.5v41.3l40 47.2m-40-47.2l-40 47.2m0-73.75h80" stroke="#000" stroke-width="2" fill="none"/><use xlink:href="#i" transform="matrix(1,0,0,1,980,198) translate(94.55 14.6)"/><path d="M154.75 214.75c0 8.15-6.6 14.75-14.75 14.75s-14.75-6.6-14.75-14.75S131.85 200 140 200s14.75 6.6 14.75 14.75z" stroke="#000" stroke-width="2" fill="#fff"/><path d="M100 200h80v118h-80z" fill="none"/><path d="M140 229.5v41.3l40 47.2m-40-47.2L100 318m0-73.75h80" stroke="#000" stroke-width="2" fill="none"/><use xlink:href="#j" transform="matrix(1,0,0,1,20,318) translate(80.725 14.6)"/><path d="M1099 150l-190.1 36.56M1099 150l2.95-.57" stroke="#000" stroke-width="2" fill="none"/><path d="M909.06 191.25l-14.88-1.86 13.13-7.26z"/><path d="M910.3 192.4L891 190l17.03-9.4zm-12.94-3.62l10.46 1.3-1.23-6.4z"/><path d="M689 190l-5.62-.12-5.38-.33-5.18-.55-5.04-.74-4.93-.94-4.87-1.14-4.84-1.36-4.87-1.58-4.95-1.84-5.13-2.16-5.42-2.55-5.9-3.1-6.8-3.92-9.03-5.76-31.9-21.56-5.2-3-4.25-2.23-3.7-1.75-3.36-1.4-1.3-.5-6.1-2.16-7.77-2.37-10.7-2.77-19.13-4.08-47.84-9.44-9.62-2.5-6.8-2.07-5.26-1.85-4.23-1.7-3.53-1.57-.37-.18-9.44-4.3-9.77-3.96-10.3-3.68-11.08-3.45-12.18-3.22-13.8-3.05-16.22-2.87-20.1-2.7-27.24-2.48-44.52-2.15-67.13-.73" stroke="#000" stroke-width="2" fill="none"/><path d="M690.02 189.06l-.02.94v.53l.03.53-1.1-.06.13-2zM197.45 74.83l-14.2-4.8 14.3-4.47z"/><path d="M198.44 76.2L180 70l18.57-5.8zm-11.97-6.13l10 3.37.07-6.52z"/><path d="M689 190l-5.2.1-4.93.32-4.72.5-4.54.66-4.4.84-4.27 1-4.2 1.18-4.13 1.34-4.1 1.53-4.13 1.73-4.17 1.97-4.27 2.23-4.42 2.55-4.67 2.97-5.1 3.55-5.83 4.43-7.54 6.26-29.75 26.3-4.27 3.26-3.5 2.44-1.5.97-2.78 1.7-3.04 1.65-3.33 1.63-3.72 1.62-4.18 1.6-4.8 1.6-5.65 1.6-6.9 1.6-9.14 1.73-15.77 2.2-35.15 4.38-7.3 1.37-5.2 1.22-4.08 1.15-.94.3-4.63 1.37-5 1.27-5.5 1.15-6.1 1-6.87.84-7.97.63-9.5.35-11.95-.06-16.44-.77-29.73-2.7-119.15-12.66-35.55-1.66h-.7" stroke="#000" stroke-width="2" fill="none"/><path d="M690 190v.53l.02.4-.96.07-.12-2 1.1-.07zM197.44 274.85l-14.2-4.8 14.32-4.47z"/><path d="M198.43 276.24L180 270l18.58-5.78zm-11.96-6.16l10 3.4.07-6.53z"/><path d="M790 139V62.96" fill="none"/><path d="M790 139v-8.45m0-8.45v-16.9m0-8.44v-16.9m0-8.45v-8.44" stroke="#000" stroke-width="2" fill="none"/><path d="M791 140.02l-1-.02h-1v-1h2zM801.04 79.67l-1.72 1.02L790 64.92l-9.32 15.76-1.72-1.03L790 61z"/><path d="M790 84.96V139" stroke="#000" stroke-width="2" fill="none"/><path d="M802.73 84.48h-25.46L790 62.96z" fill="#fff"/><path d="M804.48 85.48h-28.96L790 61zm-25.45-2h21.94L790 64.93zM791 140.02l-1-.02h-1v-1h2z"/><path d="M180 45.25l201.48-58.2" stroke="#000" stroke-width="2" fill="none"/><path d="M180.28 46.2l-.28.1v-1.05zM395.9-17.1l-12.43 8.4-2.57-8.9z"/><path d="M399-18L382.9-7.1l-3.34-11.54zm-14.95 7.7l8.73-5.9-10.54-.35z"/><path d="M480 33L194.93 232.78" stroke="#000" stroke-width="2" fill="none"/><path d="M483.03 32.1l-2.46 1.72-1.14-1.64.27-.2.3.02h1.08l1.83-.08zM197 237l-14.35 4.4 9.02-12z"/><path d="M198.6 237.55l-18.6 5.7 11.7-15.54zm-13.3 2l10.08-3.1-3.74-5.34z"/><path d="M180.76 317.35l180.4 38.8" stroke="#000" stroke-width="2" fill="none"/><path d="M180.97 316.38l-.42 1.95L179 318h1v-1.83zM375.84 359.32l-14.93 1.53 1.96-9.06z"/><path d="M379 360l-19.35 2 2.53-11.77zm-16.82-.28l10.5-1.08-9.13-5.3z"/><path d="M180.76 117.35l227.4 194.56" stroke="#000" stroke-width="2" fill="none"/><path d="M181.4 116.6l-1.3 1.5-.12-.1h.02v-2.62zM419.56 321.66l-13.86-5.75 6.03-7.04z"/><path d="M422.02 323.76l-17.97-7.46 7.82-9.13zm-14.66-8.25l9.74 4.06-5.5-9z"/><path d="M180.76 117.35L681.14 13.7" stroke="#000" stroke-width="2" fill="none"/><path d="M180.97 118.33l-2.94.6-.2-.93H180v-1.5l.56-.13zM695.83 10.66L682.8 18.1 680.92 9z"/><path d="M699 10l-16.9 9.64-2.44-11.77zm-15.5 6.54l9.16-5.23-10.48-1.14z"/><path d="M180 243.25l521.24-195.4" stroke="#000" stroke-width="2" fill="none"/><path d="M180.35 244.2l-.35.12v-1.07zM703.55 51.93l-3.25-8.68 14.98-.66z"/><path d="M703.1 53.57l-4.22-11.25 19.43-.87zm-1.38-9.38l2.3 6.1 8.23-6.58z"/><path d="M180.76 117.35l181.72 84.93" stroke="#000" stroke-width="2" fill="none"/><path d="M181.2 116.45l-.86 1.8-.56-.25h.22v-2.1zM376.07 208.63l-14.9-1.84 3.94-8.4z"/><path d="M379 210l-19.3-2.4 5.08-10.88zm-16.33-4.03l10.47 1.3-7.7-7.2z"/><path d="M171.1 305.94l204.12-64.8M171.1 305.94l-2.87.9" stroke="#000" stroke-width="2" fill="none"/><path d="M389.52 236.6l-12.2 8.74-2.8-8.83z"/><path d="M392.6 235.63l-15.82 11.33-3.63-11.46zm-14.74 8.1l8.57-6.14-10.54-.1z"/><path d="M180.76 317.35L565.8 299.7" stroke="#000" stroke-width="2" fill="none"/><path d="M180.8 318.35l-3 .14v-.5h2.2v-1.6l.72-.05zM580.78 299l-14.04 5.3-.42-9.27z"/><path d="M584 298.86l-18.2 6.85-.54-12zm-16.32 4l9.87-3.7-10.17-2.8z"/><defs><path d="M212-179c-10-28-35-45-73-45-59 0-87 40-87 99 0 60 29 101 89 101 43 0 62-24 78-52l27 14C228-24 195 4 139 4 59 4 22-46 18-125c-6-104 99-153 187-111 19 9 31 26 39 46" id="k"/><path d="M141-36C126-15 110 5 73 4 37 3 15-17 15-53c-1-64 63-63 125-63 3-35-9-54-41-54-24 1-41 7-42 31l-33-3c5-37 33-52 76-52 45 0 72 20 72 64v82c-1 20 7 32 28 27v20c-31 9-61-2-59-35zM48-53c0 20 12 33 32 33 41-3 63-29 60-74-43 2-92-5-92 41" id="l"/><path d="M114-163C36-179 61-72 57 0H25l-1-190h30c1 12-1 29 2 39 6-27 23-49 58-41v29" id="m"/><path d="M115-194c55 1 70 41 70 98S169 2 115 4C84 4 66-9 55-30l1 105H24l-1-265h31l2 30c10-21 28-34 59-34zm-8 174c40 0 45-34 45-75s-6-73-45-74c-42 0-51 32-51 76 0 43 10 73 51 73" id="n"/><path d="M100-194c62-1 85 37 85 99 1 63-27 99-86 99S16-35 15-95c0-66 28-99 85-99zM99-20c44 1 53-31 53-75 0-43-8-75-51-75s-53 32-53 75 10 74 51 75" id="o"/><path d="M24 0v-261h32V0H24" id="p"/><path d="M155-56V0h-30v-56H8v-25l114-167h33v167h35v25h-35zm-30-156c-27 46-58 90-88 131h88v-131" id="q"/><path d="M232-93c-1 65-40 97-104 97C67 4 28-28 28-90v-158h33c8 89-33 224 67 224 102 0 64-133 71-224h33v155" id="r"/><path d="M117-194c89-4 53 116 60 194h-32v-121c0-31-8-49-39-48C34-167 62-67 57 0H25l-1-190h30c1 10-1 24 2 32 11-22 29-35 61-36" id="s"/><path d="M24-231v-30h32v30H24zM24 0v-190h32V0H24" id="t"/><g id="a"><use transform="matrix(0.05,0,0,0.05,0,0)" xlink:href="#k"/><use transform="matrix(0.05,0,0,0.05,12.950000000000001,0)" xlink:href="#l"/><use transform="matrix(0.05,0,0,0.05,22.950000000000003,0)" xlink:href="#m"/><use transform="matrix(0.05,0,0,0.05,28.900000000000002,0)" xlink:href="#n"/><use transform="matrix(0.05,0,0,0.05,38.900000000000006,0)" xlink:href="#o"/><use transform="matrix(0.05,0,0,0.05,48.900000000000006,0)" xlink:href="#o"/><use transform="matrix(0.05,0,0,0.05,58.900000000000006,0)" xlink:href="#p"/><use transform="matrix(0.05,0,0,0.05,62.85,0)" xlink:href="#q"/><use transform="matrix(0.05,0,0,0.05,72.85000000000001,0)" xlink:href="#r"/><use transform="matrix(0.05,0,0,0.05,85.80000000000001,0)" xlink:href="#s"/><use transform="matrix(0.05,0,0,0.05,95.80000000000001,0)" xlink:href="#t"/></g><path d="M143 4C61 4 22-44 18-125c-5-107 100-154 193-111 17 8 29 25 37 43l-32 9c-13-25-37-40-76-40-61 0-88 39-88 99 0 61 29 100 91 101 35 0 62-11 79-27v-45h-74v-28h105v86C228-13 192 4 143 4" id="u"/><path d="M100-194c63 0 86 42 84 106H49c0 40 14 67 53 68 26 1 43-12 49-29l28 8c-11 28-37 45-77 45C44 4 14-33 15-96c1-61 26-98 85-98zm52 81c6-60-76-77-97-28-3 7-6 17-6 28h103" id="v"/><path d="M115-194c53 0 69 39 70 98 0 66-23 100-70 100C84 3 66-7 56-30L54 0H23l1-261h32v101c10-23 28-34 59-34zm-8 174c40 0 45-34 45-75 0-40-5-75-45-74-42 0-51 32-51 76 0 43 10 73 51 73" id="w"/><path d="M84 4C-5 8 30-112 23-190h32v120c0 31 7 50 39 49 72-2 45-101 50-169h31l1 190h-30c-1-10 1-25-2-33-11 22-28 36-60 37" id="x"/><path d="M143 0L79-87 56-68V0H24v-261h32v163l83-92h37l-77 82L181 0h-38" id="y"/><path d="M137 0h-34L2-248h35l83 218 83-218h36" id="z"/><g id="b"><use transform="matrix(0.05,0,0,0.05,0,0)" xlink:href="#u"/><use transform="matrix(0.05,0,0,0.05,14,0)" xlink:href="#v"/><use transform="matrix(0.05,0,0,0.05,24,0)" xlink:href="#w"/><use transform="matrix(0.05,0,0,0.05,34,0)" xlink:href="#m"/><use transform="matrix(0.05,0,0,0.05,39.95,0)" xlink:href="#x"/><use transform="matrix(0.05,0,0,0.05,49.95,0)" xlink:href="#t"/><use transform="matrix(0.05,0,0,0.05,53.900000000000006,0)" xlink:href="#y"/><use transform="matrix(0.05,0,0,0.05,62.900000000000006,0)" xlink:href="#v"/><use transform="matrix(0.05,0,0,0.05,72.9,0)" xlink:href="#m"/><use transform="matrix(0.05,0,0,0.05,78.85000000000001,0)" xlink:href="#z"/><use transform="matrix(0.05,0,0,0.05,89.85000000000001,0)" xlink:href="#v"/><use transform="matrix(0.05,0,0,0.05,99.85000000000001,0)" xlink:href="#m"/><use transform="matrix(0.05,0,0,0.05,105.80000000000001,0)" xlink:href="#w"/><use transform="matrix(0.05,0,0,0.05,115.80000000000001,0)" xlink:href="#l"/><use transform="matrix(0.05,0,0,0.05,125.80000000000001,0)" xlink:href="#s"/><use transform="matrix(0.05,0,0,0.05,135.8,0)" xlink:href="#s"/><use transform="matrix(0.05,0,0,0.05,145.8,0)" xlink:href="#v"/><use transform="matrix(0.05,0,0,0.05,155.8,0)" xlink:href="#s"/></g><path d="M205 0l-28-72H64L36 0H1l101-248h38L239 0h-34zm-38-99l-47-123c-12 45-31 82-46 123h93" id="A"/><path d="M85-194c31 0 48 13 60 33l-1-100h32l1 261h-30c-2-10 0-23-3-31C134-8 116 4 85 4 32 4 16-35 15-94c0-66 23-100 70-100zm9 24c-40 0-46 34-46 75 0 40 6 74 45 74 42 0 51-32 51-76 0-42-9-74-50-73" id="B"/><path d="M233-177c-1 41-23 64-60 70L243 0h-38l-65-103H63V0H30v-248c88 3 205-21 203 71zM63-129c60-2 137 13 137-47 0-61-80-42-137-45v92" id="C"/><path d="M59-47c-2 24 18 29 38 22v24C64 9 27 4 27-40v-127H5v-23h24l9-43h21v43h35v23H59v120" id="D"/><g id="c"><use transform="matrix(0.05,0,0,0.05,0,0)" xlink:href="#A"/><use transform="matrix(0.05,0,0,0.05,12,0)" xlink:href="#l"/><use transform="matrix(0.05,0,0,0.05,22,0)" xlink:href="#s"/><use transform="matrix(0.05,0,0,0.05,32,0)" xlink:href="#w"/><use transform="matrix(0.05,0,0,0.05,42,0)" xlink:href="#t"/><use transform="matrix(0.05,0,0,0.05,45.95,0)" xlink:href="#v"/><use transform="matrix(0.05,0,0,0.05,55.95,0)" xlink:href="#B"/><use transform="matrix(0.05,0,0,0.05,65.95,0)" xlink:href="#v"/><use transform="matrix(0.05,0,0,0.05,75.95,0)" xlink:href="#s"/><use transform="matrix(0.05,0,0,0.05,85.95,0)" xlink:href="#C"/><use transform="matrix(0.05,0,0,0.05,98.9,0)" xlink:href="#t"/><use transform="matrix(0.05,0,0,0.05,102.85000000000001,0)" xlink:href="#D"/></g><path d="M30-248c87 1 191-15 191 75 0 78-77 80-158 76V0H30v-248zm33 125c57 0 124 11 124-50 0-59-68-47-124-48v98" id="E"/><path d="M101-234c-31-9-42 10-38 44h38v23H63V0H32v-167H5v-23h27c-7-52 17-82 69-68v24" id="F"/><path d="M135-143c-3-34-86-38-87 0 15 53 115 12 119 90S17 21 10-45l28-5c4 36 97 45 98 0-10-56-113-15-118-90-4-57 82-63 122-42 12 7 21 19 24 35" id="G"/><g id="d"><use transform="matrix(0.05,0,0,0.05,0,0)" xlink:href="#E"/><use transform="matrix(0.05,0,0,0.05,12,0)" xlink:href="#m"/><use transform="matrix(0.05,0,0,0.05,17.95,0)" xlink:href="#v"/><use transform="matrix(0.05,0,0,0.05,27.950000000000003,0)" xlink:href="#F"/><use transform="matrix(0.05,0,0,0.05,32.95,0)" xlink:href="#v"/><use transform="matrix(0.05,0,0,0.05,42.95,0)" xlink:href="#m"/><use transform="matrix(0.05,0,0,0.05,48.900000000000006,0)" xlink:href="#v"/><use transform="matrix(0.05,0,0,0.05,58.900000000000006,0)" xlink:href="#s"/><use transform="matrix(0.05,0,0,0.05,68.9,0)" xlink:href="#D"/><use transform="matrix(0.05,0,0,0.05,73.9,0)" xlink:href="#t"/><use transform="matrix(0.05,0,0,0.05,77.85000000000001,0)" xlink:href="#v"/><use transform="matrix(0.05,0,0,0.05,87.85000000000001,0)" xlink:href="#G"/></g><path d="M177-190C167-65 218 103 67 71c-23-6-38-20-44-43l32-5c15 47 100 32 89-28v-30C133-14 115 1 83 1 29 1 15-40 15-95c0-56 16-97 71-98 29-1 48 16 59 35 1-10 0-23 2-32h30zM94-22c36 0 50-32 50-73 0-42-14-75-50-75-39 0-46 34-46 75s6 73 46 73" id="H"/><path d="M185-189c-5-48-123-54-124 2 14 75 158 14 163 119 3 78-121 87-175 55-17-10-28-26-33-46l33-7c5 56 141 63 141-1 0-78-155-14-162-118-5-82 145-84 179-34 5 7 8 16 11 25" id="I"/><path d="M179-190L93 31C79 59 56 82 12 73V49c39 6 53-20 64-50L1-190h34L92-34l54-156h33" id="J"/><path d="M210-169c-67 3-38 105-44 169h-31v-121c0-29-5-50-35-48C34-165 62-65 56 0H25l-1-190h30c1 10-1 24 2 32 10-44 99-50 107 0 11-21 27-35 58-36 85-2 47 119 55 194h-31v-121c0-29-5-49-35-48" id="K"/><g id="e"><use transform="matrix(0.05,0,0,0.05,0,0)" xlink:href="#C"/><use transform="matrix(0.05,0,0,0.05,12.950000000000001,0)" xlink:href="#l"/><use transform="matrix(0.05,0,0,0.05,22.950000000000003,0)" xlink:href="#D"/><use transform="matrix(0.05,0,0,0.05,27.950000000000003,0)" xlink:href="#t"/><use transform="matrix(0.05,0,0,0.05,31.900000000000002,0)" xlink:href="#s"/><use transform="matrix(0.05,0,0,0.05,41.900000000000006,0)" xlink:href="#H"/><use transform="matrix(0.05,0,0,0.05,51.900000000000006,0)" xlink:href="#I"/><use transform="matrix(0.05,0,0,0.05,63.900000000000006,0)" xlink:href="#J"/><use transform="matrix(0.05,0,0,0.05,72.9,0)" xlink:href="#G"/><use transform="matrix(0.05,0,0,0.05,81.9,0)" xlink:href="#D"/><use transform="matrix(0.05,0,0,0.05,86.9,0)" xlink:href="#v"/><use transform="matrix(0.05,0,0,0.05,96.9,0)" xlink:href="#v"/><use transform="matrix(0.05,0,0,0.05,106.9,0)" xlink:href="#K"/></g><path d="M160-131c35 5 61 23 61 61C221 17 115-2 30 0v-248c76 3 177-17 177 60 0 33-19 50-47 57zm-97-11c50-1 110 9 110-42 0-47-63-36-110-37v79zm0 115c55-2 124 14 124-45 0-56-70-42-124-44v89" id="L"/><g id="f"><use transform="matrix(0.05,0,0,0.05,0,0)" xlink:href="#L"/><use transform="matrix(0.05,0,0,0.05,12,0)" xlink:href="#v"/><use transform="matrix(0.05,0,0,0.05,22,0)" xlink:href="#D"/><use transform="matrix(0.05,0,0,0.05,27,0)" xlink:href="#l"/><use transform="matrix(0.05,0,0,0.05,37,0)" xlink:href="#l"/><use transform="matrix(0.05,0,0,0.05,47,0)" xlink:href="#p"/><use transform="matrix(0.05,0,0,0.05,50.95,0)" xlink:href="#G"/><use transform="matrix(0.05,0,0,0.05,59.95,0)" xlink:href="#J"/><use transform="matrix(0.05,0,0,0.05,68.95,0)" xlink:href="#G"/><use transform="matrix(0.05,0,0,0.05,77.95,0)" xlink:href="#D"/><use transform="matrix(0.05,0,0,0.05,82.95,0)" xlink:href="#v"/><use transform="matrix(0.05,0,0,0.05,92.95,0)" xlink:href="#v"/><use transform="matrix(0.05,0,0,0.05,102.95,0)" xlink:href="#K"/></g><path d="M96-169c-40 0-48 33-48 73s9 75 48 75c24 0 41-14 43-38l32 2c-6 37-31 61-74 61-59 0-76-41-82-99-10-93 101-131 147-64 4 7 5 14 7 22l-32 3c-4-21-16-35-41-35" id="M"/><g id="g"><use transform="matrix(0.05,0,0,0.05,0,0)" xlink:href="#E"/><use transform="matrix(0.05,0,0,0.05,12,0)" xlink:href="#p"/><use transform="matrix(0.05,0,0,0.05,15.949999999999997,0)" xlink:href="#l"/><use transform="matrix(0.05,0,0,0.05,25.950000000000003,0)" xlink:href="#l"/><use transform="matrix(0.05,0,0,0.05,35.95,0)" xlink:href="#D"/><use transform="matrix(0.05,0,0,0.05,40.95,0)" xlink:href="#G"/><use transform="matrix(0.05,0,0,0.05,49.95,0)" xlink:href="#t"/><use transform="matrix(0.05,0,0,0.05,53.900000000000006,0)" xlink:href="#s"/><use transform="matrix(0.05,0,0,0.05,63.900000000000006,0)" xlink:href="#H"/><use transform="matrix(0.05,0,0,0.05,73.9,0)" xlink:href="#G"/><use transform="matrix(0.05,0,0,0.05,82.9,0)" xlink:href="#E"/><use transform="matrix(0.05,0,0,0.05,94.9,0)" xlink:href="#m"/><use transform="matrix(0.05,0,0,0.05,100.85000000000001,0)" xlink:href="#o"/><use transform="matrix(0.05,0,0,0.05,110.85000000000001,0)" xlink:href="#M"/><use transform="matrix(0.05,0,0,0.05,119.85000000000001,0)" xlink:href="#v"/><use transform="matrix(0.05,0,0,0.05,129.85000000000002,0)" xlink:href="#B"/><use transform="matrix(0.05,0,0,0.05,139.85000000000002,0)" xlink:href="#x"/><use transform="matrix(0.05,0,0,0.05,149.85000000000002,0)" xlink:href="#m"/><use transform="matrix(0.05,0,0,0.05,155.8,0)" xlink:href="#v"/></g><path d="M240 0l2-218c-23 76-54 145-80 218h-23L58-218 59 0H30v-248h44l77 211c21-75 51-140 76-211h43V0h-30" id="N"/><path d="M24-231v-30h32v30H24zM-9 49c24 4 33-6 33-30v-209h32V24c2 40-23 58-65 49V49" id="O"/><g id="h"><use transform="matrix(0.05,0,0,0.05,0,0)" xlink:href="#N"/><use transform="matrix(0.05,0,0,0.05,14.950000000000001,0)" xlink:href="#v"/><use transform="matrix(0.05,0,0,0.05,24.950000000000003,0)" xlink:href="#v"/><use transform="matrix(0.05,0,0,0.05,34.95,0)" xlink:href="#m"/><use transform="matrix(0.05,0,0,0.05,40.900000000000006,0)" xlink:href="#t"/><use transform="matrix(0.05,0,0,0.05,44.85000000000001,0)" xlink:href="#O"/><use transform="matrix(0.05,0,0,0.05,48.80000000000001,0)" xlink:href="#B"/><use transform="matrix(0.05,0,0,0.05,58.80000000000001,0)" xlink:href="#v"/><use transform="matrix(0.05,0,0,0.05,68.80000000000001,0)" xlink:href="#m"/></g><g id="i"><use transform="matrix(0.05,0,0,0.05,0,0)" xlink:href="#A"/><use transform="matrix(0.05,0,0,0.05,12,0)" xlink:href="#B"/><use transform="matrix(0.05,0,0,0.05,22,0)" xlink:href="#K"/><use transform="matrix(0.05,0,0,0.05,36.95,0)" xlink:href="#t"/><use transform="matrix(0.05,0,0,0.05,40.900000000000006,0)" xlink:href="#s"/></g><path d="M106-169C34-169 62-67 57 0H25v-261h32l-1 103c12-21 28-36 61-36 89 0 53 116 60 194h-32v-121c2-32-8-49-39-48" id="P"/><g id="j"><use transform="matrix(0.05,0,0,0.05,0,0)" xlink:href="#k"/><use transform="matrix(0.05,0,0,0.05,12.950000000000001,0)" xlink:href="#P"/><use transform="matrix(0.05,0,0,0.05,22.950000000000003,0)" xlink:href="#l"/><use transform="matrix(0.05,0,0,0.05,32.95,0)" xlink:href="#x"/><use transform="matrix(0.05,0,0,0.05,42.95,0)" xlink:href="#F"/><use transform="matrix(0.05,0,0,0.05,47.6,0)" xlink:href="#F"/><use transform="matrix(0.05,0,0,0.05,52.6,0)" xlink:href="#v"/><use transform="matrix(0.05,0,0,0.05,62.6,0)" xlink:href="#x"/><use transform="matrix(0.05,0,0,0.05,72.6,0)" xlink:href="#m"/></g></defs></g></svg>