<svg xmlns="http://www.w3.org/2000/svg" xmlns:xlink="http://www.w3.org/1999/xlink" xmlns:lucid="lucid" width="1240.72" height="1280"><g transform="translate(-240 340)" lucid:page-tab-id="0_0"><path d="M460-320h720V920H460z" stroke="#000" stroke-width="2" fill="none"/><use xlink:href="#a" transform="matrix(1,0,0,1,468,-312) translate(302.125 15.6)"/><path d="M680 240c0 33.14-35.82 60-80 60s-80-26.86-80-60 35.82-60 80-60 80 26.86 80 60z" stroke="#000" stroke-width="2" fill="#fff"/><use xlink:href="#b" transform="matrix(1,0,0,1,520,180) translate(25.05499999999999 40.65)"/><use xlink:href="#c" transform="matrix(1,0,0,1,520,180) translate(76.955 40.65)"/><use xlink:href="#d" transform="matrix(1,0,0,1,520,180) translate(18.555 62.25)"/><use xlink:href="#e" transform="matrix(1,0,0,1,520,180) translate(53.505 62.25)"/><use xlink:href="#f" transform="matrix(1,0,0,1,520,180) translate(112.455 62.25)"/><use xlink:href="#g" transform="matrix(1,0,0,1,520,180) translate(26.029999999999998 83.85000000000001)"/><path d="M680 530c0 33.14-35.82 60-80 60s-80-26.86-80-60 35.82-60 80-60 80 26.86 80 60z" stroke="#000" stroke-width="2" fill="#fff"/><use xlink:href="#h" transform="matrix(1,0,0,1,520,470) translate(47.529999999999994 29.4)"/><use xlink:href="#i" transform="matrix(1,0,0,1,520,470) translate(20.57999999999999 51)"/><use xlink:href="#j" transform="matrix(1,0,0,1,520,470) translate(75.53 51)"/><use xlink:href="#k" transform="matrix(1,0,0,1,520,470) translate(105.48 51)"/><use xlink:href="#l" transform="matrix(1,0,0,1,520,470) translate(25.029999999999994 72.60000000000001)"/><use xlink:href="#m" transform="matrix(1,0,0,1,520,470) translate(45.029999999999994 72.60000000000001)"/><use xlink:href="#n" transform="matrix(1,0,0,1,520,470) translate(104.98 72.60000000000001)"/><use xlink:href="#o" transform="matrix(1,0,0,1,520,470) translate(55.055 94.20000000000002)"/><use xlink:href="#p" transform="matrix(1,0,0,1,520,470) translate(90.05499999999999 94.20000000000002)"/><path d="M1080 60c0 33.14-35.82 60-80 60s-80-26.86-80-60 35.82-60 80-60 80 26.86 80 60z" stroke="#000" stroke-width="2" fill="#fff"/><use xlink:href="#q" transform="matrix(1,0,0,1,920,0) translate(21.555 51.9)"/><use xlink:href="#r" transform="matrix(1,0,0,1,920,0) translate(54.505 51.9)"/><use xlink:href="#s" transform="matrix(1,0,0,1,920,0) translate(38.055 73.5)"/><use xlink:href="#o" transform="matrix(1,0,0,1,920,0) translate(72.055 73.5)"/><use xlink:href="#p" transform="matrix(1,0,0,1,920,0) translate(107.05499999999999 73.5)"/><path d="M1144.8 260c0 41.42-45.85 75-102.4 75-56.55 0-102.4-33.58-102.4-75s45.85-75 102.4-75c56.55 0 102.4 33.58 102.4 75z" stroke="#000" stroke-width="2" fill="#fff"/><use xlink:href="#t" transform="matrix(1,0,0,1,940,185) translate(36.05499999999999 47.2125)"/><use xlink:href="#u" transform="matrix(1,0,0,1,940,185) translate(123.05499999999999 47.2125)"/><use xlink:href="#v" transform="matrix(1,0,0,1,940,185) translate(20.104999999999997 68.8125)"/><use xlink:href="#w" transform="matrix(1,0,0,1,940,185) translate(65.005 68.8125)"/><use xlink:href="#x" transform="matrix(1,0,0,1,940,185) translate(18.054999999999986 90.41250000000001)"/><use xlink:href="#y" transform="matrix(1,0,0,1,940,185) translate(53.00499999999999 90.41250000000001)"/><use xlink:href="#z" transform="matrix(1,0,0,1,940,185) translate(78.005 90.41250000000001)"/><use xlink:href="#A" transform="matrix(1,0,0,1,940,185) translate(43.53 112.01250000000002)"/><use xlink:href="#y" transform="matrix(1,0,0,1,940,185) translate(62.48 112.01250000000002)"/><use xlink:href="#B" transform="matrix(1,0,0,1,940,185) translate(87.48 112.01250000000002)"/><path d="M937.12 258.85l-.16 2-9.48-.74.16-1.98zm-18.97-1.47l-.15 2-18.97-1.48.16-2zm-28.45-2.2l-.15 2-18.97-1.48.16-2zm-28.45-2.2l-.15 1.98-18.97-1.47.16-2zm-28.44-2.22l-.15 2-18.97-1.47.16-2zm-123.28-9.55v2l-9.63-.73.14-2zm-18.96-1.46l-.15 2-9.48-.74.16-2zM681.08 239l-.16 2-.95-.08.03-.92v-.38l-.03-.7z"/><path d="M939 260l-19.47 9.57-.88-1.8 16.43-8.07-15-10.5 1.16-1.65z"/><use xlink:href="#C" transform="matrix(1,0,0,1,709.516734578316,235.24393264395715) translate(0 14.4)"/><path d="M1040 560c0 33.14-35.82 60-80 60s-80-26.86-80-60 35.82-60 80-60 80 26.86 80 60z" stroke="#000" stroke-width="2" fill="#fff"/><use xlink:href="#D" transform="matrix(1,0,0,1,880,500) translate(40.555 29.41)"/><use xlink:href="#E" transform="matrix(1,0,0,1,880,500) translate(21.054999999999986 51.01)"/><use xlink:href="#F" transform="matrix(1,0,0,1,880,500) translate(46.054999999999986 51.01)"/><use xlink:href="#G" transform="matrix(1,0,0,1,880,500) translate(114.005 51.01)"/><use xlink:href="#H" transform="matrix(1,0,0,1,880,500) translate(23.054999999999993 72.61)"/><use xlink:href="#l" transform="matrix(1,0,0,1,880,500) translate(62.004999999999995 72.61)"/><use xlink:href="#I" transform="matrix(1,0,0,1,880,500) translate(82.005 72.61)"/><use xlink:href="#J" transform="matrix(1,0,0,1,880,500) translate(37.555 94.21000000000001)"/><use xlink:href="#o" transform="matrix(1,0,0,1,880,500) translate(72.55499999999999 94.21000000000001)"/><use xlink:href="#p" transform="matrix(1,0,0,1,880,500) translate(107.55499999999999 94.21000000000001)"/><path d="M319.75 219.75c0 10.9-8.84 19.75-19.75 19.75-10.9 0-19.75-8.84-19.75-19.75 0-10.9 8.84-19.75 19.75-19.75 10.9 0 19.75 8.84 19.75 19.75z" stroke="#000" stroke-width="2" fill="#fff"/><path d="M260 200h80v158h-80z" fill="none"/><path d="M300 239.5v55.3l40 63.2m-40-63.2L260 358m0-98.75h80" stroke="#000" stroke-width="2" fill="none"/><use xlink:href="#K" transform="matrix(1,0,0,1,180,358) translate(82.625 14.6)"/><path d="M1439.75 219.75c0 10.9-8.84 19.75-19.75 19.75-10.9 0-19.75-8.84-19.75-19.75 0-10.9 8.84-19.75 19.75-19.75 10.9 0 19.75 8.84 19.75 19.75z" stroke="#000" stroke-width="2" fill="#fff"/><path d="M1380 200h80v158h-80z" fill="none"/><path d="M1420 239.5v55.3l40 63.2m-40-63.2l-40 63.2m0-98.75h80" stroke="#000" stroke-width="2" fill="none"/><use xlink:href="#L" transform="matrix(1,0,0,1,1300,358) translate(80.725 14.6)"/><path d="M880 360c0 33.14-35.82 60-80 60s-80-26.86-80-60 35.82-60 80-60 80 26.86 80 60z" stroke="#000" stroke-width="2" fill="#fff"/><use xlink:href="#M" transform="matrix(1,0,0,1,720,300) translate(30.07999999999999 51.9)"/><use xlink:href="#N" transform="matrix(1,0,0,1,720,300) translate(58.029999999999994 51.9)"/><use xlink:href="#O" transform="matrix(1,0,0,1,720,300) translate(35.07999999999999 73.5)"/><use xlink:href="#o" transform="matrix(1,0,0,1,720,300) translate(75.03 73.5)"/><use xlink:href="#p" transform="matrix(1,0,0,1,720,300) translate(110.03 73.5)"/><path d="M1160 680c0 33.14-35.82 60-80 60s-80-26.86-80-60 35.82-60 80-60 80 26.86 80 60z" stroke="#000" stroke-width="2" fill="#fff"/><use xlink:href="#P" transform="matrix(1,0,0,1,1000,620) translate(17.529999999999994 51.9)"/><use xlink:href="#Q" transform="matrix(1,0,0,1,1000,620) translate(113.48 51.9)"/><use xlink:href="#R" transform="matrix(1,0,0,1,1000,620) translate(33.529999999999994 73.5)"/><use xlink:href="#S" transform="matrix(1,0,0,1,1000,620) translate(63.529999999999994 73.5)"/><path d="M900 680c0 33.14-35.82 60-80 60s-80-26.86-80-60 35.82-60 80-60 80 26.86 80 60z" stroke="#000" stroke-width="2" fill="#fff"/><use xlink:href="#T" transform="matrix(1,0,0,1,740,620) translate(24.754999999999995 51.9)"/><use xlink:href="#Q" transform="matrix(1,0,0,1,740,620) translate(106.255 51.9)"/><use xlink:href="#R" transform="matrix(1,0,0,1,740,620) translate(33.529999999999994 73.5)"/><use xlink:href="#S" transform="matrix(1,0,0,1,740,620) translate(63.529999999999994 73.5)"/><path d="M999 680h-39v-35.04" stroke="#000" stroke-width="2" fill="none"/><path d="M1000 680v.38l.03.62H999v-2h1.03z"/><path d="M972.73 644.48h-25.46L960 622.96z" fill="#fff"/><path d="M974.48 645.48h-28.96L960 621zm-25.45-2h21.94L960 624.93zM683.5 497.8l-8.35 5.43-1.1-1.68 8.37-5.42zm25.1-16.28l-16.73 10.86-1.1-1.68 16.2-10.5h.75zm50.15-32.55l-14.82 9.62h-2.7l-.3-.46 16.73-10.85zm25.08-16.28l-16.72 10.84-1.08-1.67L782.74 431zm16.7-10.86l-8.34 5.42-1.1-1.67 8.36-5.44z"/><path d="M803.06 420.2l-2.52 1.64-1.08-1.68.26-.17H800.9l1.97-.08zM684.4 484.92l-8.14 16.4 18.3-.76.07 2-21.67.9 9.65-19.43z"/><use xlink:href="#C" transform="matrix(1,0,0,1,676.0062604880733,458.58552664837595) translate(0 14.4)"/><path d="M912.6 508.07l-1.24 1.57-7.47-5.85 1.23-1.6zm-14.94-11.7l-1.23 1.56-14.93-11.7 1.23-1.6zm-44.8-35.16l-.85 1.12h-.96l-14.33-11.25 1.24-1.57zm-22.38-17.56l-1.24 1.58-14.93-11.72 1.25-1.57zm-22.4-17.57l-1.23 1.57-7.47-5.85 1.24-1.6z"/><path d="M800 420h.34l.28.2-1.24 1.6-2.36-1.87zM913.52 510.07l-21.5-2.84.26-1.98 18.15 2.4-6.65-17.07 1.87-.72z"/><use xlink:href="#C" transform="matrix(1,0,0,1,816.9711572893424,462.31671580201555) translate(0 14.4)"/><path d="M680 40c0 33.14-35.82 60-80 60s-80-26.86-80-60 35.82-60 80-60 80 26.86 80 60z" stroke="#000" stroke-width="2" fill="#fff"/><use xlink:href="#q" transform="matrix(1,0,0,1,520,-20) translate(29.554999999999996 40.65)"/><use xlink:href="#U" transform="matrix(1,0,0,1,520,-20) translate(62.505 40.65)"/><use xlink:href="#s" transform="matrix(1,0,0,1,520,-20) translate(21.08 62.25)"/><use xlink:href="#y" transform="matrix(1,0,0,1,520,-20) translate(55.08 62.25)"/><use xlink:href="#V" transform="matrix(1,0,0,1,520,-20) translate(80.07999999999998 62.25)"/><use xlink:href="#A" transform="matrix(1,0,0,1,520,-20) translate(99.97999999999999 62.25)"/><use xlink:href="#W" transform="matrix(1,0,0,1,520,-20) translate(118.93 62.25)"/><use xlink:href="#B" transform="matrix(1,0,0,1,520,-20) translate(43.004999999999995 83.85000000000001)"/><path d="M340 258.25l60-12.2h119.4" stroke="#000" stroke-width="2" fill="none"/><path d="M340.2 259.23l-.2.04v-1.02zM520.4 246.08l.17.97h-1.17v-2h.9z"/><path d="M420.54 398.92l298.33-39.9.26 1.97-299.67 40.08-80.33-142.34 1.74-.98z"/><path d="M340.87 257.76l-.87.5v-2.04zM720 360v.38l.02.5-.9.1-.25-1.97 1.17-.15z"/><path d="M1380 258.34L1180 400l-299-40" stroke="#000" stroke-width="2" fill="none"/><path d="M1380 258.34l-.58-.8.58-.42zM881.13 359l-.26 2-.9-.13.03-.87v-.38l-.03-.77z"/><path d="M901 680h59v-35.04" stroke="#000" stroke-width="2" fill="none"/><path d="M901 681h-1.03l.03-1v-.38l-.03-.62H901z"/><path d="M972.73 644.48h-25.46L960 622.96z" fill="#fff"/><path d="M974.48 645.48h-28.96L960 621zm-25.45-2h21.94L960 624.93z"/><path d="M340 258.25L380 520l139 10" stroke="#000" stroke-width="2" fill="none"/><path d="M341 258.1l-1 .15v-3.03l.54-.1zM520.03 529.07l-.03.93v.38l.03.7-1.1-.08.14-2z"/><path d="M1380 258.34L1220 520l-179 40" stroke="#000" stroke-width="2" fill="none"/><path d="M1380 258.34l-.85-.52.85-1.4zM1041.22 560.98l-1.26.28.04-1.26v-.38l-.02-.42.8-.18z"/><path d="M1380 258.34L1280 140l-199-80" stroke="#000" stroke-width="2" fill="none"/><path d="M1380 259.9l-.76-.9.76-.66zM1081.37 59.07l-.74 1.86-.65-.26.02-.67v-.38l-.05-1.12z"/><path d="M940 840c0 33.14-53.73 60-120 60-66.27 0-120-26.86-120-60s53.73-60 120-60c66.27 0 120 26.86 120 60z" stroke="#000" stroke-width="2" fill="#fff"/><g><use xlink:href="#q" transform="matrix(1,0,0,1,700,780) translate(40.054999999999986 40.65)"/><use xlink:href="#X" transform="matrix(1,0,0,1,700,780) translate(73.005 40.65)"/><use xlink:href="#s" transform="matrix(1,0,0,1,700,780) translate(145.955 40.65)"/><use xlink:href="#W" transform="matrix(1,0,0,1,700,780) translate(179.955 40.65)"/><use xlink:href="#Y" transform="matrix(1,0,0,1,700,780) translate(29.70499999999999 62.25)"/><use xlink:href="#Z" transform="matrix(1,0,0,1,700,780) translate(91.605 62.25)"/><use xlink:href="#A" transform="matrix(1,0,0,1,700,780) translate(171.35500000000002 62.25)"/><use xlink:href="#W" transform="matrix(1,0,0,1,700,780) translate(190.305 62.25)"/><use xlink:href="#aa" transform="matrix(1,0,0,1,700,780) translate(33.10499999999999 83.85000000000001)"/><use xlink:href="#O" transform="matrix(1,0,0,1,700,780) translate(127.05499999999999 83.85000000000001)"/><use xlink:href="#y" transform="matrix(1,0,0,1,700,780) translate(167.005 83.85000000000001)"/><use xlink:href="#p" transform="matrix(1,0,0,1,700,780) translate(192.005 83.85000000000001)"/></g><path d="M889.67 782.53l-9.74 4.03-.77-1.85 9.74-4.02zm29.22-12.08l-19.5 8.05-.75-1.84 19.48-8.06zm9.73-4.03l-.76-1.85 2.6-1.07h5.22zm77.94-32.23l-18.65 7.7h-.98l-.62-1.5 19.48-8.06zm19.48-8.07l-9.74 4.03-.76-1.85 9.74-4.02z"/><path d="M1027.77 725.42l-1.72.7-.77-1.84.5-.2zM892.36 770.25l-11 14.64 18.13 2.58-.3 1.98-21.47-3.07 13.03-17.35z"/><g><use xlink:href="#C" transform="matrix(1,0,0,1,909.7408260703294,741.8989417569055) translate(0 14.4)"/></g><path d="M840 140c0 33.14-35.82 60-80 60s-80-26.86-80-60 35.82-60 80-60 80 26.86 80 60z" stroke="#000" stroke-width="2" fill="#fff"/><g><use xlink:href="#ab" transform="matrix(1,0,0,1,680,80) translate(66.03 29.4)"/><use xlink:href="#ac" transform="matrix(1,0,0,1,680,80) translate(21.029999999999994 51)"/><use xlink:href="#Q" transform="matrix(1,0,0,1,680,80) translate(109.98 51)"/><use xlink:href="#o" transform="matrix(1,0,0,1,680,80) translate(18.029999999999994 72.60000000000001)"/><use xlink:href="#ad" transform="matrix(1,0,0,1,680,80) translate(53.029999999999994 72.60000000000001)"/><use xlink:href="#O" transform="matrix(1,0,0,1,680,80) translate(40.07999999999999 94.20000000000002)"/><use xlink:href="#y" transform="matrix(1,0,0,1,680,80) translate(80.03 94.20000000000002)"/><use xlink:href="#p" transform="matrix(1,0,0,1,680,80) translate(105.03 94.20000000000002)"/></g><path d="M843.34 105.76l-9.52 5.6-1.02-1.7 9.52-5.63zm9.52-5.6l-1.02-1.74.6-.34h3.93zm47.6-28.07l-7.44 4.38h-3.94l10.37-6.12zm19.05-11.24l-9.5 5.6-1.03-1.7 9.52-5.62z"/><path d="M920 60V60.58l-.5.28-1-1.72 1.56-.92zM835 109.5l18.3.04v2l-21.68-.03 7.4-13.42h2.3z"/><g><use xlink:href="#C" transform="matrix(1,0,0,1,823.2742547321934,76.47588467974317) translate(0 14.4)"/></g><path d="M919.12 59l-.24 2-9.86-1.17.23-2zm-19.74-2.32l-.23 2-19.73-2.34.23-2zm-29.6-3.5l-.23 2-19.73-2.33.23-2zm-29.6-3.48l-.23 1.98-17.3-2.04v-2zM721.8 35.73l-.24 2-19.73-2.34.23-2zm-29.6-3.5l-.24 2-9.86-1.17.23-1.98z"/><path d="M920.03 59.1l-.03.9v.38l.03.75-1.15-.14.24-2zM700.9 24.9l-16.74 7.4 14.56 11.1-1.2 1.6-17.26-13.16 19.84-8.78z"/><g><use xlink:href="#C" transform="matrix(1,0,0,1,723.7452816721502,32.002012151036865) translate(0 14.4)"/></g><path d="M760-240c0 33.14-35.82 60-80 60s-80-26.86-80-60 35.82-60 80-60 80 26.86 80 60z" stroke="#000" stroke-width="2" fill="#fff"/><g><use xlink:href="#ae" transform="matrix(1,0,0,1,600,-300) translate(45.529999999999994 63.15)"/></g><path d="M1080-240c0 33.14-35.82 60-80 60s-80-26.86-80-60 35.82-60 80-60 80 26.86 80 60z" stroke="#000" stroke-width="2" fill="#fff"/><g><use xlink:href="#af" transform="matrix(1,0,0,1,920,-300) translate(30.404999999999994 51.9)"/><use xlink:href="#ag" transform="matrix(1,0,0,1,920,-300) translate(43.10499999999999 73.5)"/></g><path d="M900-80c0 33.14-35.82 60-80 60s-80-26.86-80-60 35.82-60 80-60 80 26.86 80 60z" stroke="#000" stroke-width="2" fill="#fff"/><g><use xlink:href="#ah" transform="matrix(1,0,0,1,740,-140) translate(36.605 51.9)"/><use xlink:href="#ai" transform="matrix(1,0,0,1,740,-140) translate(85.555 51.9)"/><use xlink:href="#aj" transform="matrix(1,0,0,1,740,-140) translate(36.05499999999999 73.5)"/></g><path d="M776.2-131.58l-1.5 1.32-5.52-6.3 1.5-1.32zm-11.03-12.6l-1.5 1.32-2.62-3h2.66zm-20.36-23.27h-2.65l-6.03-6.9 1.5-1.3zm-12.7-14.5l-1.5 1.3-5.5-6.3 1.5-1.3zM777.04-130.62l-1.83.94-.5-.58 1.5-1.32z"/><path d="M745.16-182.3l-.62 1.9-17.4-5.72 3.37 18-1.96.36-3.98-21.32z"/><g><use xlink:href="#ak" transform="matrix(1,0,0,1,704.9335834892447,-167.44733315514887) translate(0 14.4)"/></g><path d="M771.4-239H761v-2h10.4zm30.58 0H781.8v-2h20.18zm115.06 0h-10.4v-2h10.4zM761-239h-1.03l.03-1v-.38l-.03-.62H761z"/><path d="M900.33-228.96l-.14-.24h.54zM919-240l-18.12 10.72v-2.33l14.2-8.4-14.2-8.4v-2.32zm-18.26-10.8h-.55l.13-.24z"/><g><use xlink:href="#C" transform="matrix(1,0,0,1,801.9773288099344,-250.8) translate(0 14.4)"/></g><path d="M1220.7-60.82l160.2 318.7-1.8.9-159.8-317.96L752-211.58l.62-1.9z"/><path d="M1380 260.57l-.9-1.78.9-.46zM752.64-213.5l-.62 1.9-1.26-.4 1.16-1.73z"/><path d="M340 258.25L420-20l179-220" stroke="#000" stroke-width="2" fill="none"/><path d="M340.96 258.53l-.83 2.88-.13-.03v-3.12zM600.1-242.86L600-240v.35l-.22.28-1.56-1.26 1.88-2.3z"/><defs><path d="M212-179c-10-28-35-45-73-45-59 0-87 40-87 99 0 60 29 101 89 101 43 0 62-24 78-52l27 14C228-24 195 4 139 4 59 4 22-46 18-125c-6-104 99-153 187-111 19 9 31 26 39 46" id="al"/><path d="M141-36C126-15 110 5 73 4 37 3 15-17 15-53c-1-64 63-63 125-63 3-35-9-54-41-54-24 1-41 7-42 31l-33-3c5-37 33-52 76-52 45 0 72 20 72 64v82c-1 20 7 32 28 27v20c-31 9-61-2-59-35zM48-53c0 20 12 33 32 33 41-3 63-29 60-74-43 2-92-5-92 41" id="am"/><path d="M114-163C36-179 61-72 57 0H25l-1-190h30c1 12-1 29 2 39 6-27 23-49 58-41v29" id="an"/><path d="M115-194c55 1 70 41 70 98S169 2 115 4C84 4 66-9 55-30l1 105H24l-1-265h31l2 30c10-21 28-34 59-34zm-8 174c40 0 45-34 45-75s-6-73-45-74c-42 0-51 32-51 76 0 43 10 73 51 73" id="ao"/><path d="M100-194c62-1 85 37 85 99 1 63-27 99-86 99S16-35 15-95c0-66 28-99 85-99zM99-20c44 1 53-31 53-75 0-43-8-75-51-75s-53 32-53 75 10 74 51 75" id="ap"/><path d="M24 0v-261h32V0H24" id="aq"/><path d="M155-56V0h-30v-56H8v-25l114-167h33v167h35v25h-35zm-30-156c-27 46-58 90-88 131h88v-131" id="ar"/><path d="M232-93c-1 65-40 97-104 97C67 4 28-28 28-90v-158h33c8 89-33 224 67 224 102 0 64-133 71-224h33v155" id="as"/><path d="M117-194c89-4 53 116 60 194h-32v-121c0-31-8-49-39-48C34-167 62-67 57 0H25l-1-190h30c1 10-1 24 2 32 11-22 29-35 61-36" id="at"/><path d="M24-231v-30h32v30H24zM24 0v-190h32V0H24" id="au"/><g id="a"><use transform="matrix(0.05,0,0,0.05,0,0)" xlink:href="#al"/><use transform="matrix(0.05,0,0,0.05,12.950000000000001,0)" xlink:href="#am"/><use transform="matrix(0.05,0,0,0.05,22.950000000000003,0)" xlink:href="#an"/><use transform="matrix(0.05,0,0,0.05,28.900000000000002,0)" xlink:href="#ao"/><use transform="matrix(0.05,0,0,0.05,38.900000000000006,0)" xlink:href="#ap"/><use transform="matrix(0.05,0,0,0.05,48.900000000000006,0)" xlink:href="#ap"/><use transform="matrix(0.05,0,0,0.05,58.900000000000006,0)" xlink:href="#aq"/><use transform="matrix(0.05,0,0,0.05,62.85,0)" xlink:href="#ar"/><use transform="matrix(0.05,0,0,0.05,72.85000000000001,0)" xlink:href="#as"/><use transform="matrix(0.05,0,0,0.05,85.80000000000001,0)" xlink:href="#at"/><use transform="matrix(0.05,0,0,0.05,95.80000000000001,0)" xlink:href="#au"/></g><path d="M233-177c-1 41-23 64-60 70L243 0h-38l-65-103H63V0H30v-248c88 3 205-21 203 71zM63-129c60-2 137 13 137-47 0-61-80-42-137-45v92" id="av"/><path d="M59-47c-2 24 18 29 38 22v24C64 9 27 4 27-40v-127H5v-23h24l9-43h21v43h35v23H59v120" id="aw"/><path d="M100-194c63 0 86 42 84 106H49c0 40 14 67 53 68 26 1 43-12 49-29l28 8c-11 28-37 45-77 45C44 4 14-33 15-96c1-61 26-98 85-98zm52 81c6-60-76-77-97-28-3 7-6 17-6 28h103" id="ax"/><g id="b"><use transform="matrix(0.05,0,0,0.05,0,0)" xlink:href="#av"/><use transform="matrix(0.05,0,0,0.05,12.950000000000001,0)" xlink:href="#au"/><use transform="matrix(0.05,0,0,0.05,16.900000000000002,0)" xlink:href="#aw"/><use transform="matrix(0.05,0,0,0.05,21.900000000000002,0)" xlink:href="#aw"/><use transform="matrix(0.05,0,0,0.05,26.900000000000002,0)" xlink:href="#ax"/><use transform="matrix(0.05,0,0,0.05,36.900000000000006,0)" xlink:href="#at"/></g><path d="M9 0v-24l116-142H16v-24h144v24L44-24h123V0H9" id="ay"/><path d="M143 0L79-87 56-68V0H24v-261h32v163l83-92h37l-77 82L181 0h-38" id="az"/><g id="c"><use transform="matrix(0.05,0,0,0.05,0,0)" xlink:href="#ay"/><use transform="matrix(0.05,0,0,0.05,9,0)" xlink:href="#ap"/><use transform="matrix(0.05,0,0,0.05,19,0)" xlink:href="#ax"/><use transform="matrix(0.05,0,0,0.05,29,0)" xlink:href="#az"/><use transform="matrix(0.05,0,0,0.05,38,0)" xlink:href="#ax"/><use transform="matrix(0.05,0,0,0.05,48,0)" xlink:href="#at"/></g><path d="M210-169c-67 3-38 105-44 169h-31v-121c0-29-5-50-35-48C34-165 62-65 56 0H25l-1-190h30c1 10-1 24 2 32 10-44 99-50 107 0 11-21 27-35 58-36 85-2 47 119 55 194h-31v-121c0-29-5-49-35-48" id="aA"/><g id="d"><use transform="matrix(0.05,0,0,0.05,0,0)" xlink:href="#aA"/><use transform="matrix(0.05,0,0,0.05,14.950000000000001,0)" xlink:href="#ax"/><use transform="matrix(0.05,0,0,0.05,24.950000000000003,0)" xlink:href="#aw"/></g><path d="M115-194c53 0 69 39 70 98 0 66-23 100-70 100C84 3 66-7 56-30L54 0H23l1-261h32v101c10-23 28-34 59-34zm-8 174c40 0 45-34 45-75 0-40-5-75-45-74-42 0-51 32-51 76 0 43 10 73 51 73" id="aB"/><path d="M106-169C34-169 62-67 57 0H25v-261h32l-1 103c12-21 28-36 61-36 89 0 53 116 60 194h-32v-121c2-32-8-49-39-48" id="aC"/><path d="M84 4C-5 8 30-112 23-190h32v120c0 31 7 50 39 49 72-2 45-101 50-169h31l1 190h-30c-1-10 1-25-2-33-11 22-28 36-60 37" id="aD"/><g id="e"><use transform="matrix(0.05,0,0,0.05,0,0)" xlink:href="#aB"/><use transform="matrix(0.05,0,0,0.05,10,0)" xlink:href="#ax"/><use transform="matrix(0.05,0,0,0.05,20,0)" xlink:href="#aC"/><use transform="matrix(0.05,0,0,0.05,30,0)" xlink:href="#aD"/><use transform="matrix(0.05,0,0,0.05,40,0)" xlink:href="#aq"/><use transform="matrix(0.05,0,0,0.05,43.95,0)" xlink:href="#ao"/></g><path d="M108 0H70L1-190h34L89-25l56-165h34" id="aE"/><g id="f"><use transform="matrix(0.05,0,0,0.05,0,0)" xlink:href="#aE"/><use transform="matrix(0.05,0,0,0.05,9,0)" xlink:href="#am"/><use transform="matrix(0.05,0,0,0.05,19,0)" xlink:href="#at"/></g><path d="M85-194c31 0 48 13 60 33l-1-100h32l1 261h-30c-2-10 0-23-3-31C134-8 116 4 85 4 32 4 16-35 15-94c0-66 23-100 70-100zm9 24c-40 0-46 34-46 75 0 40 6 74 45 74 42 0 51-32 51-76 0-42-9-74-50-73" id="aF"/><path d="M96-169c-40 0-48 33-48 73s9 75 48 75c24 0 41-14 43-38l32 2c-6 37-31 61-74 61-59 0-76-41-82-99-10-93 101-131 147-64 4 7 5 14 7 22l-32 3c-4-21-16-35-41-35" id="aG"/><g id="g"><use transform="matrix(0.05,0,0,0.05,0,0)" xlink:href="#ay"/><use transform="matrix(0.05,0,0,0.05,9,0)" xlink:href="#ap"/><use transform="matrix(0.05,0,0,0.05,19,0)" xlink:href="#ax"/><use transform="matrix(0.05,0,0,0.05,29,0)" xlink:href="#az"/><use transform="matrix(0.05,0,0,0.05,38,0)" xlink:href="#ap"/><use transform="matrix(0.05,0,0,0.05,48,0)" xlink:href="#ao"/><use transform="matrix(0.05,0,0,0.05,58,0)" xlink:href="#aF"/><use transform="matrix(0.05,0,0,0.05,68,0)" xlink:href="#an"/><use transform="matrix(0.05,0,0,0.05,73.95,0)" xlink:href="#am"/><use transform="matrix(0.05,0,0,0.05,83.95,0)" xlink:href="#aG"/><use transform="matrix(0.05,0,0,0.05,92.95,0)" xlink:href="#aC"/><use transform="matrix(0.05,0,0,0.05,102.95,0)" xlink:href="#aw"/></g><path d="M137 0h-34L2-248h35l83 218 83-218h36" id="aH"/><g id="h"><use transform="matrix(0.05,0,0,0.05,0,0)" xlink:href="#aH"/><use transform="matrix(0.05,0,0,0.05,11,0)" xlink:href="#ax"/><use transform="matrix(0.05,0,0,0.05,21,0)" xlink:href="#an"/><use transform="matrix(0.05,0,0,0.05,26.950000000000003,0)" xlink:href="#ay"/><use transform="matrix(0.05,0,0,0.05,35.95,0)" xlink:href="#ap"/><use transform="matrix(0.05,0,0,0.05,45.95,0)" xlink:href="#ax"/><use transform="matrix(0.05,0,0,0.05,55.95,0)" xlink:href="#az"/></g><path d="M135-143c-3-34-86-38-87 0 15 53 115 12 119 90S17 21 10-45l28-5c4 36 97 45 98 0-10-56-113-15-118-90-4-57 82-63 122-42 12 7 21 19 24 35" id="aI"/><g id="i"><use transform="matrix(0.05,0,0,0.05,0,0)" xlink:href="#aI"/><use transform="matrix(0.05,0,0,0.05,9,0)" xlink:href="#aw"/><use transform="matrix(0.05,0,0,0.05,14,0)" xlink:href="#aD"/><use transform="matrix(0.05,0,0,0.05,24,0)" xlink:href="#an"/><use transform="matrix(0.05,0,0,0.05,29.950000000000003,0)" xlink:href="#ax"/><use transform="matrix(0.05,0,0,0.05,39.95,0)" xlink:href="#at"/></g><g id="j"><use transform="matrix(0.05,0,0,0.05,0,0)" xlink:href="#ap"/><use transform="matrix(0.05,0,0,0.05,10,0)" xlink:href="#aA"/></g><g id="k"><use transform="matrix(0.05,0,0,0.05,0,0)" xlink:href="#aF"/><use transform="matrix(0.05,0,0,0.05,10,0)" xlink:href="#ax"/><use transform="matrix(0.05,0,0,0.05,20,0)" xlink:href="#ax"/><use transform="matrix(0.05,0,0,0.05,30,0)" xlink:href="#aq"/></g><g id="l"><use transform="matrix(0.05,0,0,0.05,0,0)" xlink:href="#aw"/><use transform="matrix(0.05,0,0,0.05,5,0)" xlink:href="#ax"/></g><g id="m"><use transform="matrix(0.05,0,0,0.05,0,0)" xlink:href="#at"/><use transform="matrix(0.05,0,0,0.05,10,0)" xlink:href="#ax"/><use transform="matrix(0.05,0,0,0.05,20,0)" xlink:href="#aA"/><use transform="matrix(0.05,0,0,0.05,34.95,0)" xlink:href="#ax"/><use transform="matrix(0.05,0,0,0.05,44.95,0)" xlink:href="#at"/></g><g id="n"><use transform="matrix(0.05,0,0,0.05,0,0)" xlink:href="#am"/><use transform="matrix(0.05,0,0,0.05,10,0)" xlink:href="#am"/><use transform="matrix(0.05,0,0,0.05,20,0)" xlink:href="#at"/></g><g id="o"><use transform="matrix(0.05,0,0,0.05,0,0)" xlink:href="#ax"/><use transform="matrix(0.05,0,0,0.05,10,0)" xlink:href="#ax"/><use transform="matrix(0.05,0,0,0.05,20,0)" xlink:href="#at"/></g><g id="p"><use transform="matrix(0.05,0,0,0.05,0,0)" xlink:href="#an"/><use transform="matrix(0.05,0,0,0.05,5.95,0)" xlink:href="#au"/><use transform="matrix(0.05,0,0,0.05,9.9,0)" xlink:href="#aw"/></g><path d="M197 0v-115H63V0H30v-248h33v105h134v-105h34V0h-34" id="aJ"/><g id="q"><use transform="matrix(0.05,0,0,0.05,0,0)" xlink:href="#aJ"/><use transform="matrix(0.05,0,0,0.05,12.950000000000001,0)" xlink:href="#ax"/><use transform="matrix(0.05,0,0,0.05,22.950000000000003,0)" xlink:href="#aw"/></g><g id="r"><use transform="matrix(0.05,0,0,0.05,0,0)" xlink:href="#am"/><use transform="matrix(0.05,0,0,0.05,10,0)" xlink:href="#am"/><use transform="matrix(0.05,0,0,0.05,20,0)" xlink:href="#at"/><use transform="matrix(0.05,0,0,0.05,30,0)" xlink:href="#aB"/><use transform="matrix(0.05,0,0,0.05,40,0)" xlink:href="#au"/><use transform="matrix(0.05,0,0,0.05,43.95,0)" xlink:href="#ax"/><use transform="matrix(0.05,0,0,0.05,53.95,0)" xlink:href="#aF"/><use transform="matrix(0.05,0,0,0.05,63.95,0)" xlink:href="#ax"/><use transform="matrix(0.05,0,0,0.05,73.95,0)" xlink:href="#at"/></g><g id="s"><use transform="matrix(0.05,0,0,0.05,0,0)" xlink:href="#aE"/><use transform="matrix(0.05,0,0,0.05,9,0)" xlink:href="#am"/><use transform="matrix(0.05,0,0,0.05,19,0)" xlink:href="#at"/></g><path d="M140-251c81 0 123 46 123 126C263-46 219 4 140 4 59 4 17-45 17-125s42-126 123-126zm0 227c63 0 89-41 89-101s-29-99-89-99c-61 0-89 39-89 99S79-25 140-24" id="aK"/><g id="t"><use transform="matrix(0.05,0,0,0.05,0,0)" xlink:href="#aK"/><use transform="matrix(0.05,0,0,0.05,14,0)" xlink:href="#ao"/><use transform="matrix(0.05,0,0,0.05,24,0)" xlink:href="#ay"/><use transform="matrix(0.05,0,0,0.05,33,0)" xlink:href="#ap"/><use transform="matrix(0.05,0,0,0.05,43,0)" xlink:href="#ax"/><use transform="matrix(0.05,0,0,0.05,53,0)" xlink:href="#az"/><use transform="matrix(0.05,0,0,0.05,62,0)" xlink:href="#ax"/><use transform="matrix(0.05,0,0,0.05,72,0)" xlink:href="#at"/></g><path d="M206 0h-36l-40-164L89 0H53L-1-190h32L70-26l43-164h34l41 164 42-164h31" id="aL"/><g id="u"><use transform="matrix(0.05,0,0,0.05,0,0)" xlink:href="#aL"/><use transform="matrix(0.05,0,0,0.05,12.950000000000001,0)" xlink:href="#ax"/><use transform="matrix(0.05,0,0,0.05,22.950000000000003,0)" xlink:href="#aq"/><use transform="matrix(0.05,0,0,0.05,26.900000000000002,0)" xlink:href="#az"/><use transform="matrix(0.05,0,0,0.05,35.900000000000006,0)" xlink:href="#ax"/></g><g id="v"><use transform="matrix(0.05,0,0,0.05,0,0)" xlink:href="#an"/><use transform="matrix(0.05,0,0,0.05,5.95,0)" xlink:href="#au"/><use transform="matrix(0.05,0,0,0.05,9.9,0)" xlink:href="#aw"/><use transform="matrix(0.05,0,0,0.05,14.9,0)" xlink:href="#aw"/><use transform="matrix(0.05,0,0,0.05,19.9,0)" xlink:href="#ax"/><use transform="matrix(0.05,0,0,0.05,29.899999999999995,0)" xlink:href="#at"/></g><g id="w"><use transform="matrix(0.05,0,0,0.05,0,0)" xlink:href="#ap"/><use transform="matrix(0.05,0,0,0.05,10,0)" xlink:href="#aE"/><use transform="matrix(0.05,0,0,0.05,19,0)" xlink:href="#ax"/><use transform="matrix(0.05,0,0,0.05,29,0)" xlink:href="#an"/><use transform="matrix(0.05,0,0,0.05,34.95,0)" xlink:href="#ax"/><use transform="matrix(0.05,0,0,0.05,44.95,0)" xlink:href="#ax"/><use transform="matrix(0.05,0,0,0.05,54.95,0)" xlink:href="#at"/><use transform="matrix(0.05,0,0,0.05,64.95,0)" xlink:href="#az"/><use transform="matrix(0.05,0,0,0.05,73.95,0)" xlink:href="#ap"/><use transform="matrix(0.05,0,0,0.05,83.95,0)" xlink:href="#aA"/><use transform="matrix(0.05,0,0,0.05,98.9,0)" xlink:href="#ax"/><use transform="matrix(0.05,0,0,0.05,108.9,0)" xlink:href="#at"/></g><g id="x"><use transform="matrix(0.05,0,0,0.05,0,0)" xlink:href="#aA"/><use transform="matrix(0.05,0,0,0.05,14.950000000000001,0)" xlink:href="#ax"/><use transform="matrix(0.05,0,0,0.05,24.950000000000003,0)" xlink:href="#aw"/></g><g id="y"><use transform="matrix(0.05,0,0,0.05,0,0)" xlink:href="#aF"/><use transform="matrix(0.05,0,0,0.05,10,0)" xlink:href="#ax"/></g><g id="z"><use transform="matrix(0.05,0,0,0.05,0,0)" xlink:href="#ay"/><use transform="matrix(0.05,0,0,0.05,9,0)" xlink:href="#ap"/><use transform="matrix(0.05,0,0,0.05,19,0)" xlink:href="#ax"/><use transform="matrix(0.05,0,0,0.05,29,0)" xlink:href="#az"/><use transform="matrix(0.05,0,0,0.05,38,0)" xlink:href="#ap"/><use transform="matrix(0.05,0,0,0.05,48,0)" xlink:href="#ao"/><use transform="matrix(0.05,0,0,0.05,58,0)" xlink:href="#aF"/><use transform="matrix(0.05,0,0,0.05,68,0)" xlink:href="#an"/><use transform="matrix(0.05,0,0,0.05,73.95,0)" xlink:href="#am"/><use transform="matrix(0.05,0,0,0.05,83.95,0)" xlink:href="#aG"/><use transform="matrix(0.05,0,0,0.05,92.95,0)" xlink:href="#aC"/><use transform="matrix(0.05,0,0,0.05,102.95,0)" xlink:href="#aw"/></g><g id="A"><use transform="matrix(0.05,0,0,0.05,0,0)" xlink:href="#au"/><use transform="matrix(0.05,0,0,0.05,3.95,0)" xlink:href="#at"/></g><g id="B"><use transform="matrix(0.05,0,0,0.05,0,0)" xlink:href="#aF"/><use transform="matrix(0.05,0,0,0.05,10,0)" xlink:href="#am"/><use transform="matrix(0.05,0,0,0.05,20,0)" xlink:href="#aw"/><use transform="matrix(0.05,0,0,0.05,25,0)" xlink:href="#am"/><use transform="matrix(0.05,0,0,0.05,35,0)" xlink:href="#aB"/><use transform="matrix(0.05,0,0,0.05,45,0)" xlink:href="#am"/><use transform="matrix(0.05,0,0,0.05,55,0)" xlink:href="#aI"/><use transform="matrix(0.05,0,0,0.05,64,0)" xlink:href="#ax"/></g><path d="M18-100v-36l175-74v27L42-118l151 64v27" id="aM"/><path d="M18-27v-27l151-64-151-65v-27l175 74v36" id="aN"/><g id="C"><use transform="matrix(0.05,0,0,0.05,0,0)" xlink:href="#aM"/><use transform="matrix(0.05,0,0,0.05,10.5,0)" xlink:href="#aM"/><use transform="matrix(0.05,0,0,0.05,21,0)" xlink:href="#au"/><use transform="matrix(0.05,0,0,0.05,24.95,0)" xlink:href="#at"/><use transform="matrix(0.05,0,0,0.05,34.95,0)" xlink:href="#aG"/><use transform="matrix(0.05,0,0,0.05,43.95,0)" xlink:href="#aq"/><use transform="matrix(0.05,0,0,0.05,47.900000000000006,0)" xlink:href="#aD"/><use transform="matrix(0.05,0,0,0.05,57.900000000000006,0)" xlink:href="#aF"/><use transform="matrix(0.05,0,0,0.05,67.9,0)" xlink:href="#ax"/><use transform="matrix(0.05,0,0,0.05,77.9,0)" xlink:href="#aN"/><use transform="matrix(0.05,0,0,0.05,88.4,0)" xlink:href="#aN"/></g><path d="M177-190C167-65 218 103 67 71c-23-6-38-20-44-43l32-5c15 47 100 32 89-28v-30C133-14 115 1 83 1 29 1 15-40 15-95c0-56 16-97 71-98 29-1 48 16 59 35 1-10 0-23 2-32h30zM94-22c36 0 50-32 50-73 0-42-14-75-50-75-39 0-46 34-46 75s6 73 46 73" id="aO"/><g id="D"><use transform="matrix(0.05,0,0,0.05,0,0)" xlink:href="#av"/><use transform="matrix(0.05,0,0,0.05,12.950000000000001,0)" xlink:href="#ax"/><use transform="matrix(0.05,0,0,0.05,22.950000000000003,0)" xlink:href="#am"/><use transform="matrix(0.05,0,0,0.05,32.95,0)" xlink:href="#aO"/><use transform="matrix(0.05,0,0,0.05,42.95,0)" xlink:href="#ax"/><use transform="matrix(0.05,0,0,0.05,52.95,0)" xlink:href="#an"/><use transform="matrix(0.05,0,0,0.05,58.900000000000006,0)" xlink:href="#ax"/><use transform="matrix(0.05,0,0,0.05,68.9,0)" xlink:href="#at"/></g><g id="E"><use transform="matrix(0.05,0,0,0.05,0,0)" xlink:href="#ap"/><use transform="matrix(0.05,0,0,0.05,10,0)" xlink:href="#ao"/></g><g id="F"><use transform="matrix(0.05,0,0,0.05,0,0)" xlink:href="#aE"/><use transform="matrix(0.05,0,0,0.05,9,0)" xlink:href="#ax"/><use transform="matrix(0.05,0,0,0.05,19,0)" xlink:href="#an"/><use transform="matrix(0.05,0,0,0.05,24.95,0)" xlink:href="#ay"/><use transform="matrix(0.05,0,0,0.05,33.95,0)" xlink:href="#ap"/><use transform="matrix(0.05,0,0,0.05,43.95,0)" xlink:href="#ax"/><use transform="matrix(0.05,0,0,0.05,53.95,0)" xlink:href="#az"/></g><g id="G"><use transform="matrix(0.05,0,0,0.05,0,0)" xlink:href="#ap"/><use transform="matrix(0.05,0,0,0.05,10,0)" xlink:href="#aA"/></g><g id="H"><use transform="matrix(0.05,0,0,0.05,0,0)" xlink:href="#aF"/><use transform="matrix(0.05,0,0,0.05,10,0)" xlink:href="#ax"/><use transform="matrix(0.05,0,0,0.05,20,0)" xlink:href="#ax"/><use transform="matrix(0.05,0,0,0.05,30,0)" xlink:href="#aq"/></g><g id="I"><use transform="matrix(0.05,0,0,0.05,0,0)" xlink:href="#at"/><use transform="matrix(0.05,0,0,0.05,10,0)" xlink:href="#ax"/><use transform="matrix(0.05,0,0,0.05,20,0)" xlink:href="#aA"/><use transform="matrix(0.05,0,0,0.05,34.95,0)" xlink:href="#ax"/><use transform="matrix(0.05,0,0,0.05,44.95,0)" xlink:href="#at"/></g><g id="J"><use transform="matrix(0.05,0,0,0.05,0,0)" xlink:href="#am"/><use transform="matrix(0.05,0,0,0.05,10,0)" xlink:href="#am"/><use transform="matrix(0.05,0,0,0.05,20,0)" xlink:href="#at"/></g><path d="M240 0l2-218c-23 76-54 145-80 218h-23L58-218 59 0H30v-248h44l77 211c21-75 51-140 76-211h43V0h-30" id="aP"/><path d="M24-231v-30h32v30H24zM-9 49c24 4 33-6 33-30v-209h32V24c2 40-23 58-65 49V49" id="aQ"/><g id="K"><use transform="matrix(0.05,0,0,0.05,0,0)" xlink:href="#aP"/><use transform="matrix(0.05,0,0,0.05,14.950000000000001,0)" xlink:href="#ax"/><use transform="matrix(0.05,0,0,0.05,24.950000000000003,0)" xlink:href="#ax"/><use transform="matrix(0.05,0,0,0.05,34.95,0)" xlink:href="#an"/><use transform="matrix(0.05,0,0,0.05,40.900000000000006,0)" xlink:href="#au"/><use transform="matrix(0.05,0,0,0.05,44.85000000000001,0)" xlink:href="#aQ"/><use transform="matrix(0.05,0,0,0.05,48.80000000000001,0)" xlink:href="#aF"/><use transform="matrix(0.05,0,0,0.05,58.80000000000001,0)" xlink:href="#ax"/><use transform="matrix(0.05,0,0,0.05,68.80000000000001,0)" xlink:href="#an"/></g><path d="M101-234c-31-9-42 10-38 44h38v23H63V0H32v-167H5v-23h27c-7-52 17-82 69-68v24" id="aR"/><g id="L"><use transform="matrix(0.05,0,0,0.05,0,0)" xlink:href="#al"/><use transform="matrix(0.05,0,0,0.05,12.950000000000001,0)" xlink:href="#aC"/><use transform="matrix(0.05,0,0,0.05,22.950000000000003,0)" xlink:href="#am"/><use transform="matrix(0.05,0,0,0.05,32.95,0)" xlink:href="#aD"/><use transform="matrix(0.05,0,0,0.05,42.95,0)" xlink:href="#aR"/><use transform="matrix(0.05,0,0,0.05,47.6,0)" xlink:href="#aR"/><use transform="matrix(0.05,0,0,0.05,52.6,0)" xlink:href="#ax"/><use transform="matrix(0.05,0,0,0.05,62.6,0)" xlink:href="#aD"/><use transform="matrix(0.05,0,0,0.05,72.6,0)" xlink:href="#an"/></g><path d="M30-248c118-7 216 8 213 122C240-48 200 0 122 0H30v-248zM63-27c89 8 146-16 146-99s-60-101-146-95v194" id="aS"/><g id="M"><use transform="matrix(0.05,0,0,0.05,0,0)" xlink:href="#aS"/><use transform="matrix(0.05,0,0,0.05,12.950000000000001,0)" xlink:href="#ax"/></g><g id="N"><use transform="matrix(0.05,0,0,0.05,0,0)" xlink:href="#ao"/><use transform="matrix(0.05,0,0,0.05,10,0)" xlink:href="#aq"/><use transform="matrix(0.05,0,0,0.05,13.949999999999998,0)" xlink:href="#am"/><use transform="matrix(0.05,0,0,0.05,23.95,0)" xlink:href="#am"/><use transform="matrix(0.05,0,0,0.05,33.95,0)" xlink:href="#aw"/><use transform="matrix(0.05,0,0,0.05,38.95,0)" xlink:href="#aI"/><use transform="matrix(0.05,0,0,0.05,47.95,0)" xlink:href="#au"/><use transform="matrix(0.05,0,0,0.05,51.900000000000006,0)" xlink:href="#at"/><use transform="matrix(0.05,0,0,0.05,61.900000000000006,0)" xlink:href="#aO"/></g><g id="O"><use transform="matrix(0.05,0,0,0.05,0,0)" xlink:href="#aE"/><use transform="matrix(0.05,0,0,0.05,9,0)" xlink:href="#ap"/><use transform="matrix(0.05,0,0,0.05,19,0)" xlink:href="#ap"/><use transform="matrix(0.05,0,0,0.05,29,0)" xlink:href="#an"/></g><path d="M205 0l-28-72H64L36 0H1l101-248h38L239 0h-34zm-38-99l-47-123c-12 45-31 82-46 123h93" id="aT"/><g id="P"><use transform="matrix(0.05,0,0,0.05,0,0)" xlink:href="#aT"/><use transform="matrix(0.05,0,0,0.05,12,0)" xlink:href="#aG"/><use transform="matrix(0.05,0,0,0.05,21,0)" xlink:href="#aG"/><use transform="matrix(0.05,0,0,0.05,30,0)" xlink:href="#ax"/><use transform="matrix(0.05,0,0,0.05,40,0)" xlink:href="#ao"/><use transform="matrix(0.05,0,0,0.05,50,0)" xlink:href="#aw"/><use transform="matrix(0.05,0,0,0.05,55,0)" xlink:href="#ax"/><use transform="matrix(0.05,0,0,0.05,65,0)" xlink:href="#an"/><use transform="matrix(0.05,0,0,0.05,70.95,0)" xlink:href="#ax"/><use transform="matrix(0.05,0,0,0.05,80.95,0)" xlink:href="#at"/></g><g id="Q"><use transform="matrix(0.05,0,0,0.05,0,0)" xlink:href="#aE"/><use transform="matrix(0.05,0,0,0.05,9,0)" xlink:href="#am"/><use transform="matrix(0.05,0,0,0.05,19,0)" xlink:href="#at"/></g><g id="R"><use transform="matrix(0.05,0,0,0.05,0,0)" xlink:href="#aC"/><use transform="matrix(0.05,0,0,0.05,10,0)" xlink:href="#ax"/><use transform="matrix(0.05,0,0,0.05,20,0)" xlink:href="#aw"/></g><g id="S"><use transform="matrix(0.05,0,0,0.05,0,0)" xlink:href="#aE"/><use transform="matrix(0.05,0,0,0.05,9,0)" xlink:href="#ax"/><use transform="matrix(0.05,0,0,0.05,19,0)" xlink:href="#an"/><use transform="matrix(0.05,0,0,0.05,24.95,0)" xlink:href="#ay"/><use transform="matrix(0.05,0,0,0.05,33.95,0)" xlink:href="#ap"/><use transform="matrix(0.05,0,0,0.05,43.95,0)" xlink:href="#ax"/><use transform="matrix(0.05,0,0,0.05,53.95,0)" xlink:href="#az"/></g><path d="M266 0h-40l-56-210L115 0H75L2-248h35L96-30l15-64 43-154h32l59 218 59-218h35" id="aU"/><g id="T"><use transform="matrix(0.05,0,0,0.05,0,0)" xlink:href="#aU"/><use transform="matrix(0.05,0,0,0.05,16.599999999999998,0)" xlink:href="#ax"/><use transform="matrix(0.05,0,0,0.05,26.599999999999994,0)" xlink:href="#au"/><use transform="matrix(0.05,0,0,0.05,30.549999999999997,0)" xlink:href="#aO"/><use transform="matrix(0.05,0,0,0.05,40.55,0)" xlink:href="#ax"/><use transform="matrix(0.05,0,0,0.05,50.55,0)" xlink:href="#an"/><use transform="matrix(0.05,0,0,0.05,56.5,0)" xlink:href="#ax"/><use transform="matrix(0.05,0,0,0.05,66.5,0)" xlink:href="#at"/></g><g id="U"><use transform="matrix(0.05,0,0,0.05,0,0)" xlink:href="#ao"/><use transform="matrix(0.05,0,0,0.05,10,0)" xlink:href="#aq"/><use transform="matrix(0.05,0,0,0.05,13.949999999999998,0)" xlink:href="#am"/><use transform="matrix(0.05,0,0,0.05,23.95,0)" xlink:href="#am"/><use transform="matrix(0.05,0,0,0.05,33.95,0)" xlink:href="#aw"/><use transform="matrix(0.05,0,0,0.05,38.95,0)" xlink:href="#aI"/><use transform="matrix(0.05,0,0,0.05,47.95,0)" xlink:href="#ax"/><use transform="matrix(0.05,0,0,0.05,57.95,0)" xlink:href="#at"/></g><g id="V"><use transform="matrix(0.05,0,0,0.05,0,0)" xlink:href="#an"/><use transform="matrix(0.05,0,0,0.05,5.95,0)" xlink:href="#au"/><use transform="matrix(0.05,0,0,0.05,9.9,0)" xlink:href="#aw"/></g><g id="W"><use transform="matrix(0.05,0,0,0.05,0,0)" xlink:href="#aF"/><use transform="matrix(0.05,0,0,0.05,10,0)" xlink:href="#ax"/></g><g id="X"><use transform="matrix(0.05,0,0,0.05,0,0)" xlink:href="#ao"/><use transform="matrix(0.05,0,0,0.05,10,0)" xlink:href="#aq"/><use transform="matrix(0.05,0,0,0.05,13.949999999999998,0)" xlink:href="#am"/><use transform="matrix(0.05,0,0,0.05,23.95,0)" xlink:href="#am"/><use transform="matrix(0.05,0,0,0.05,33.95,0)" xlink:href="#aw"/><use transform="matrix(0.05,0,0,0.05,38.95,0)" xlink:href="#aI"/><use transform="matrix(0.05,0,0,0.05,47.95,0)" xlink:href="#ax"/><use transform="matrix(0.05,0,0,0.05,57.95,0)" xlink:href="#at"/></g><g id="Y"><use transform="matrix(0.05,0,0,0.05,0,0)" xlink:href="#at"/><use transform="matrix(0.05,0,0,0.05,10,0)" xlink:href="#au"/><use transform="matrix(0.05,0,0,0.05,13.949999999999998,0)" xlink:href="#ax"/><use transform="matrix(0.05,0,0,0.05,23.95,0)" xlink:href="#aD"/><use transform="matrix(0.05,0,0,0.05,33.95,0)" xlink:href="#aL"/><use transform="matrix(0.05,0,0,0.05,46.900000000000006,0)" xlink:href="#ax"/></g><g id="Z"><use transform="matrix(0.05,0,0,0.05,0,0)" xlink:href="#aA"/><use transform="matrix(0.05,0,0,0.05,14.950000000000001,0)" xlink:href="#ax"/><use transform="matrix(0.05,0,0,0.05,24.950000000000003,0)" xlink:href="#ax"/><use transform="matrix(0.05,0,0,0.05,34.95,0)" xlink:href="#an"/><use transform="matrix(0.05,0,0,0.05,40.900000000000006,0)" xlink:href="#au"/><use transform="matrix(0.05,0,0,0.05,44.85000000000001,0)" xlink:href="#aQ"/><use transform="matrix(0.05,0,0,0.05,48.80000000000001,0)" xlink:href="#aF"/><use transform="matrix(0.05,0,0,0.05,58.80000000000001,0)" xlink:href="#ax"/><use transform="matrix(0.05,0,0,0.05,68.80000000000001,0)" xlink:href="#an"/></g><g id="aa"><use transform="matrix(0.05,0,0,0.05,0,0)" xlink:href="#aO"/><use transform="matrix(0.05,0,0,0.05,10,0)" xlink:href="#an"/><use transform="matrix(0.05,0,0,0.05,15.949999999999998,0)" xlink:href="#ap"/><use transform="matrix(0.05,0,0,0.05,25.950000000000003,0)" xlink:href="#ax"/><use transform="matrix(0.05,0,0,0.05,35.95,0)" xlink:href="#ao"/><use transform="matrix(0.05,0,0,0.05,45.95,0)" xlink:href="#aI"/><use transform="matrix(0.05,0,0,0.05,54.95,0)" xlink:href="#aG"/><use transform="matrix(0.05,0,0,0.05,63.95,0)" xlink:href="#aC"/><use transform="matrix(0.05,0,0,0.05,73.95,0)" xlink:href="#am"/><use transform="matrix(0.05,0,0,0.05,83.95,0)" xlink:href="#aw"/></g><g id="ab"><use transform="matrix(0.05,0,0,0.05,0,0)" xlink:href="#aJ"/><use transform="matrix(0.05,0,0,0.05,12.950000000000001,0)" xlink:href="#ax"/><use transform="matrix(0.05,0,0,0.05,22.950000000000003,0)" xlink:href="#aw"/></g><g id="ac"><use transform="matrix(0.05,0,0,0.05,0,0)" xlink:href="#am"/><use transform="matrix(0.05,0,0,0.05,10,0)" xlink:href="#am"/><use transform="matrix(0.05,0,0,0.05,20,0)" xlink:href="#at"/><use transform="matrix(0.05,0,0,0.05,30,0)" xlink:href="#aA"/><use transform="matrix(0.05,0,0,0.05,44.95,0)" xlink:href="#am"/><use transform="matrix(0.05,0,0,0.05,54.95,0)" xlink:href="#az"/><use transform="matrix(0.05,0,0,0.05,63.95,0)" xlink:href="#ax"/><use transform="matrix(0.05,0,0,0.05,73.95,0)" xlink:href="#at"/></g><g id="ad"><use transform="matrix(0.05,0,0,0.05,0,0)" xlink:href="#aO"/><use transform="matrix(0.05,0,0,0.05,10,0)" xlink:href="#an"/><use transform="matrix(0.05,0,0,0.05,15.949999999999998,0)" xlink:href="#ap"/><use transform="matrix(0.05,0,0,0.05,25.950000000000003,0)" xlink:href="#ax"/><use transform="matrix(0.05,0,0,0.05,35.95,0)" xlink:href="#ao"/><use transform="matrix(0.05,0,0,0.05,45.95,0)" xlink:href="#aI"/><use transform="matrix(0.05,0,0,0.05,54.95,0)" xlink:href="#aG"/><use transform="matrix(0.05,0,0,0.05,63.95,0)" xlink:href="#aC"/><use transform="matrix(0.05,0,0,0.05,73.95,0)" xlink:href="#am"/><use transform="matrix(0.05,0,0,0.05,83.95,0)" xlink:href="#aw"/></g><path d="M33 0v-248h34V0H33" id="aV"/><g id="ae"><use transform="matrix(0.05,0,0,0.05,0,0)" xlink:href="#aV"/><use transform="matrix(0.05,0,0,0.05,5,0)" xlink:href="#at"/><use transform="matrix(0.05,0,0,0.05,15,0)" xlink:href="#aq"/><use transform="matrix(0.05,0,0,0.05,18.95,0)" xlink:href="#ap"/><use transform="matrix(0.05,0,0,0.05,28.950000000000003,0)" xlink:href="#aO"/><use transform="matrix(0.05,0,0,0.05,38.95,0)" xlink:href="#aO"/><use transform="matrix(0.05,0,0,0.05,48.95,0)" xlink:href="#ax"/><use transform="matrix(0.05,0,0,0.05,58.95,0)" xlink:href="#at"/></g><g id="af"><use transform="matrix(0.05,0,0,0.05,0,0)" xlink:href="#aU"/><use transform="matrix(0.05,0,0,0.05,16.3,0)" xlink:href="#am"/><use transform="matrix(0.05,0,0,0.05,26.3,0)" xlink:href="#aG"/><use transform="matrix(0.05,0,0,0.05,35.3,0)" xlink:href="#aC"/><use transform="matrix(0.05,0,0,0.05,45.3,0)" xlink:href="#aw"/><use transform="matrix(0.05,0,0,0.05,50.3,0)" xlink:href="#aL"/><use transform="matrix(0.05,0,0,0.05,63.25,0)" xlink:href="#ap"/><use transform="matrix(0.05,0,0,0.05,73.25,0)" xlink:href="#ap"/><use transform="matrix(0.05,0,0,0.05,83.25,0)" xlink:href="#an"/><use transform="matrix(0.05,0,0,0.05,89.2,0)" xlink:href="#aF"/></g><path d="M100-194c63 0 86 42 84 106H49c0 40 14 67 53 68 26 1 43-12 49-29l28 8c-11 28-37 45-77 45C44 4 14-33 15-96c1-61 26-98 85-98zm52 81c6-60-76-77-97-28-3 7-6 17-6 28h103zm-31-101v-33h29v33h-29zm-69 0v-33h29v33H52" id="aW"/><g id="ag"><use transform="matrix(0.05,0,0,0.05,0,0)" xlink:href="#aE"/><use transform="matrix(0.05,0,0,0.05,9,0)" xlink:href="#ax"/><use transform="matrix(0.05,0,0,0.05,19,0)" xlink:href="#an"/><use transform="matrix(0.05,0,0,0.05,24.95,0)" xlink:href="#au"/><use transform="matrix(0.05,0,0,0.05,28.899999999999995,0)" xlink:href="#aR"/><use transform="matrix(0.05,0,0,0.05,33.9,0)" xlink:href="#au"/><use transform="matrix(0.05,0,0,0.05,37.85,0)" xlink:href="#aW"/><use transform="matrix(0.05,0,0,0.05,47.85,0)" xlink:href="#an"/><use transform="matrix(0.05,0,0,0.05,53.800000000000004,0)" xlink:href="#ax"/><use transform="matrix(0.05,0,0,0.05,63.800000000000004,0)" xlink:href="#at"/></g><path d="M30 0v-248h33v221h125V0H30" id="aX"/><g id="ah"><use transform="matrix(0.05,0,0,0.05,0,0)" xlink:href="#aX"/><use transform="matrix(0.05,0,0,0.05,10,0)" xlink:href="#ap"/><use transform="matrix(0.05,0,0,0.05,20,0)" xlink:href="#aO"/><use transform="matrix(0.05,0,0,0.05,30,0)" xlink:href="#au"/><use transform="matrix(0.05,0,0,0.05,33.95,0)" xlink:href="#at"/></g><g id="ai"><use transform="matrix(0.05,0,0,0.05,0,0)" xlink:href="#ax"/><use transform="matrix(0.05,0,0,0.05,10,0)" xlink:href="#an"/><use transform="matrix(0.05,0,0,0.05,15.949999999999998,0)" xlink:href="#an"/><use transform="matrix(0.05,0,0,0.05,21.9,0)" xlink:href="#ap"/><use transform="matrix(0.05,0,0,0.05,31.899999999999995,0)" xlink:href="#an"/></g><g id="aj"><use transform="matrix(0.05,0,0,0.05,0,0)" xlink:href="#aL"/><use transform="matrix(0.05,0,0,0.05,12.950000000000001,0)" xlink:href="#ax"/><use transform="matrix(0.05,0,0,0.05,22.950000000000003,0)" xlink:href="#ax"/><use transform="matrix(0.05,0,0,0.05,32.95,0)" xlink:href="#an"/><use transform="matrix(0.05,0,0,0.05,38.900000000000006,0)" xlink:href="#aO"/><use transform="matrix(0.05,0,0,0.05,48.900000000000006,0)" xlink:href="#ax"/><use transform="matrix(0.05,0,0,0.05,58.900000000000006,0)" xlink:href="#aE"/><use transform="matrix(0.05,0,0,0.05,67.9,0)" xlink:href="#ax"/><use transform="matrix(0.05,0,0,0.05,77.9,0)" xlink:href="#at"/></g><path d="M141 0L90-78 38 0H4l68-98-65-92h35l48 74 47-74h35l-64 92 68 98h-35" id="aY"/><g id="ak"><use transform="matrix(0.05,0,0,0.05,0,0)" xlink:href="#aM"/><use transform="matrix(0.05,0,0,0.05,10.5,0)" xlink:href="#aM"/><use transform="matrix(0.05,0,0,0.05,21,0)" xlink:href="#ax"/><use transform="matrix(0.05,0,0,0.05,31,0)" xlink:href="#aY"/><use transform="matrix(0.05,0,0,0.05,40,0)" xlink:href="#aw"/><use transform="matrix(0.05,0,0,0.05,45,0)" xlink:href="#ax"/><use transform="matrix(0.05,0,0,0.05,55,0)" xlink:href="#at"/><use transform="matrix(0.05,0,0,0.05,65,0)" xlink:href="#aF"/><use transform="matrix(0.05,0,0,0.05,75,0)" xlink:href="#aN"/><use transform="matrix(0.05,0,0,0.05,85.5,0)" xlink:href="#aN"/></g></defs></g></svg>